<svg width="284" height="179" viewBox="0 0 284 179" fill="none" xmlns="http://www.w3.org/2000/svg">
<path d="M280.984 145.306C274.823 145.04 268.657 144.823 262.502 144.51C257.301 144.244 252.106 143.878 246.81 143.862C253.608 146.919 260.4 149.838 265.797 155.187C228.858 144.403 191.224 142.525 153.044 145.799C161.794 149.408 170.296 153.414 177.385 159.947C123.752 139.649 69.3603 138.534 14.3159 153.239L13.886 152.655L21.7184 145.656H4.96579L4.77475 145.215L8.22929 143.183L8.13377 142.705L4 143.183V142.652L8.92975 136.231H5.74584C7.02471 134.241 8.18684 132.426 9.57184 130.277L6.79653 130.553C7.95335 128.526 8.95628 126.753 10.0282 124.869L8.17092 124.376L11.2222 119.6L9.50285 119.345C10.9993 116.575 12.4745 113.836 14.0452 110.918C15.2604 113.247 16.4119 115.455 17.8022 118.135L20.031 114.452H18.0039L23.1406 104.847L28.3516 114.5L26.0751 114.293L30.055 120.396L27.3646 119.971C28.4736 121.897 29.4129 123.521 30.7236 125.809C33.0054 122.624 35.1917 120.003 36.8951 117.095C38.5985 114.187 39.8561 110.944 41.6073 107.208C44.0005 110.148 46.2611 112.897 48.5057 115.699C49.514 116.957 48.5747 117.679 47.7522 118.565C44.0376 122.545 40.3762 126.594 37.033 130.951C49.3654 123.967 58.9596 113.969 67.7418 103.165C76.5241 92.36 84.2663 80.7329 90.459 67.6093C98.0155 78.1697 103.195 90.2161 115.081 96.5789C113.442 94.1802 111.712 91.8293 110.178 89.367C108.315 86.374 106.511 83.3385 104.925 80.1969C104.765 79.7103 104.725 79.1924 104.808 78.6871C104.891 78.1817 105.095 77.7039 105.402 77.2941C121.025 61.4641 132.529 42.8002 142.972 23.3562C143.344 22.661 143.779 21.9977 144.368 21C146.74 25.2826 148.969 29.3316 151.213 33.3754C158.377 46.2655 165.541 59.1556 174.61 70.8623C176.393 73.1602 178.468 75.2298 180.293 77.4958C181.572 79.0878 182.946 79.4858 184.591 78.26C186.236 77.0341 187.34 77.2729 188.89 79.0135C192.201 82.7282 196.011 85.9972 199.619 89.4519L200.299 88.7992C196.345 83.1687 192.387 77.5435 188.545 72.0776C186.656 72.2049 184.199 73.1389 183.105 72.2952C180.359 70.1873 178.473 67.1525 177.799 63.7566L184.384 66.7443L189.59 54.0505C203.78 78.1114 221.201 98.2187 243.456 113.927L244.258 113.316C242.289 110.594 240.517 107.686 238.283 105.202C236.749 103.494 236.399 101.87 237.083 99.8956C238.468 95.9049 240.57 92.4661 244.815 90.0144C244.385 101.477 250.615 109.766 256.42 118.814L259.291 114.479H257.168L262.295 104.873L267.468 114.548L265.346 114.362L267.659 118.167L271.374 111.008L275.964 119.387L274.287 119.578C275.296 121.25 276.224 122.762 277.232 124.445L275.38 124.917L278.66 130.532L275.916 130.335L279.737 136.337L276.516 136.045L280.984 142.122V145.306ZM208.051 103.08L208.37 102.438C200.007 97.8684 192.779 91.893 186.279 84.9995C185.902 84.6015 184.83 84.3256 184.416 84.5644C180.898 86.6075 178.913 84.3309 176.764 82.1233C167.488 72.6083 160.733 61.3102 154.02 49.9908C150.725 44.4294 147.61 38.7617 144.31 32.9614C135.055 49.354 125.026 64.871 112.624 78.8702L123.142 72.1413C122.845 73.797 122.611 75.0281 122.399 76.2593L123.259 76.981L136.116 63.279C134.721 68.0551 133.463 72.3005 132.232 76.5459L132.603 76.6573L144.575 59.7765L145.35 59.8561C144.692 66.8398 145.488 73.4733 149.547 79.3107C149.638 79.4614 149.713 79.6216 149.77 79.7883C150.502 81.8119 151.236 83.8303 151.972 85.8433L152.88 85.8115C153.336 78.2971 153.787 70.7774 154.19 64.1121L162.649 71.8918L158.934 72.2209L158.271 73.0753L167.918 81.9747L164.915 84.0496C171.67 88.3853 178.351 92.6784 185.196 97.083C185.111 95.7723 185.032 94.626 184.942 93.3046L193.395 100.405C193.75 99.28 193.952 98.6591 194.132 98.1019L208.051 103.08ZM68.4105 128.276L68.904 128.764L80.7375 113.094V120.979C82.9397 113.836 86.5057 107.819 92.1677 102.841C92.4755 105.378 92.7355 107.511 93.0698 110.27L96.206 103.844L108.411 111.618L104.951 115.333L117.464 112.807L116.663 114.93L128.231 113.72L119.035 108.137L119.427 107.304L122.118 106.964L122.532 106.338C108.878 102.422 99.6871 93.1932 92.4914 81.1415C91.5363 83.2218 90.8995 84.6705 90.0133 86.5332C89.7834 85.9085 89.585 85.2727 89.419 84.6281C89.3181 84.0974 89.3181 83.503 89.2226 82.2613C84.3778 91.3199 76.2853 98.0966 77.4687 109.22L76.5666 109.05C76.1686 107.161 75.7759 105.271 75.2877 102.942C66.2666 114.404 56.6406 124.768 45.3377 133.689L50.3153 131.986L50.5859 132.463L44.2181 138.067C53.8494 134.591 61.4059 128.016 69.5885 120.948L68.4105 128.276ZM238.065 128.913L253.008 132.962L253.199 132.596L249.299 129.205L251.952 127.57L247.553 124.758L249.601 124.413L228.466 110.371L228.115 110.642L237.821 123.16L235.168 125.257L241.716 126.992L238.065 128.913ZM150.184 99.9593C151.102 103.674 151.951 107.108 152.795 110.536L153.389 110.456C152.821 104.857 152.259 99.2535 151.68 93.5222L149.68 94.2439C148.22 88.9372 146.644 83.901 142.925 78.9817C143.455 84.1292 143.874 88.4489 144.31 92.7792L144.75 93.0711C144.952 92.5404 145.148 92.0098 145.344 91.4366L146.024 91.7816C146.522 95.0028 147.026 98.2293 147.562 101.652L150.184 99.9593ZM126.458 126.716L137.071 133.562C135.628 130.965 134.093 128.198 132.465 125.262L134.747 125.602L134.896 125.209L130.651 122.667L133.426 122.099L121.985 118.687C122.346 121.797 119.454 119.541 118.562 120.926L128.448 125.92L128.172 126.589L126.458 126.716ZM213.729 119.976L221.02 127.188L218.898 122.253L221.615 121.292C218.606 118.39 216.038 115.911 213.565 113.534L214.791 113.279L204.151 107.643C204.443 114.229 211.654 115.036 214.6 119.6L213.729 119.976Z" fill="white"/>
<path d="M97.7608 58.0941C95.15 57.3671 92.3057 56.5658 89.4614 55.7804C87.8694 55.3346 86.1714 55.0799 84.6855 54.4059C84.2851 54.1863 83.9395 53.8788 83.6748 53.5066C83.4102 53.1344 83.2332 52.7071 83.1572 52.2567C83.1148 51.657 83.9904 50.6646 84.6802 50.3834C88.0233 48.8975 91.3558 47.2736 94.8581 46.2813C98.8698 45.1456 102.897 45.3154 106.267 48.4623C106.734 48.8975 107.657 48.855 108.39 49.0248C110.162 49.4494 112.019 49.6723 113.696 50.3728C114.476 50.7071 115.378 51.9966 115.288 52.7661C115.198 53.5356 114.147 54.6341 113.293 54.9154C111.11 55.5501 108.892 56.0534 106.649 56.4225C103.794 56.9903 100.955 57.4997 97.7608 58.0941Z" fill="white"/>
<path d="M177.443 44.5246C173.92 43.8401 170.858 43.4102 167.892 42.5771C166.915 42.3011 165.663 41.0275 165.594 40.1307C165.525 39.2338 166.708 38.1406 167.6 37.4773C169.187 36.3928 170.832 35.3971 172.53 34.4949C173.662 33.7908 174.941 33.3566 176.268 33.2259C177.595 33.0953 178.934 33.2716 180.182 33.7413C182.919 34.8404 185.578 36.1241 188.141 37.5834C188.852 37.9761 189.691 39.1754 189.569 39.8016C189.442 40.2915 189.204 40.7459 188.875 41.1303C188.546 41.5147 188.134 41.8189 187.669 42.0199C184.183 43.0441 180.574 43.7658 177.443 44.5246Z" fill="white"/>
<path d="M60.3817 81.375C56.8953 80.5366 52.8305 79.6185 48.8082 78.5253C48.113 78.3343 47.4815 77.4639 47.0995 76.79C46.9668 76.5512 47.5665 75.6172 48.0281 75.389C51.1537 73.8394 54.2261 72.067 57.5268 71.0481C59.4637 70.4537 61.9047 70.7084 63.8946 71.3134C66.5479 72.1041 68.9782 73.5529 71.4298 74.8636C72.0295 75.182 72.8095 76.185 72.6822 76.6361C72.4487 77.4533 71.7164 78.5094 70.9735 78.7588C67.7365 79.6981 64.4146 80.3827 60.3817 81.375Z" fill="white"/>
<path d="M220.341 59.8828C222.076 60.6205 223.817 61.3475 225.542 62.1063C227.134 62.8174 228.763 63.4861 230.286 64.3299C230.986 64.7226 231.464 65.5027 232.047 66.1023C231.352 66.6967 230.747 67.6148 229.951 67.827C227.335 68.5381 224.618 68.8884 221.992 69.5677C217.874 70.629 214.212 68.6761 210.413 67.8589C208.428 67.4343 208.083 65.4072 209.654 64.5475C212.514 62.9873 215.571 61.7879 218.564 60.4878C219.083 60.3567 219.62 60.303 220.156 60.3286L220.341 59.8828Z" fill="white"/>
<path d="M41.7346 157.617C43.7458 156.328 45.7623 155.038 47.9698 153.616H29.3121C69.9918 144.292 110.502 144.764 150.831 155.622C114.418 150.299 78.0895 149.726 41.7346 157.617Z" fill="white"/>
<path d="M168.672 148.633C192.19 147.142 215.481 148.463 238.58 153.175C236.712 153.175 234.865 153.175 232.971 153.175C214.7 153.038 196.425 152.74 178.154 152.873C174.047 152.905 171.617 150.607 168.672 148.633Z" fill="white"/>
<path d="M277.222 148.781C273.375 149.37 269.517 150.474 265.696 150.373C263.441 150.299 261.249 148.282 259.233 146.531L277.116 148.123L277.222 148.781Z" fill="white"/>
<path d="M10.198 147.413H16.2952C13.764 150.252 13.5358 150.257 10.198 147.413Z" fill="white"/>
<path d="M208.051 103.08L194.132 98.0966C193.952 98.6538 193.75 99.2747 193.395 100.4L184.936 93.2993C185.026 94.6207 185.106 95.7669 185.191 97.0777C178.346 92.6731 171.665 88.3799 164.909 84.0443L167.913 81.9694L158.255 73.0487L158.934 72.1943L162.649 71.8653L154.158 64.1121C153.755 70.7774 153.304 78.2971 152.848 85.8115L151.94 85.8433C151.208 83.8267 150.474 81.8084 149.738 79.7883C149.681 79.6216 149.606 79.4614 149.515 79.3107C145.456 73.4732 144.66 66.8398 145.318 59.8561L144.543 59.7765L132.593 76.6679L132.221 76.5565C133.463 72.3111 134.71 68.0657 136.106 63.2896L123.259 76.9916L122.399 76.2699C122.622 75.0387 122.845 73.8076 123.142 72.1519L112.624 78.8808C125.026 64.871 135.055 49.354 144.31 32.9614C147.61 38.7617 150.725 44.4293 154.02 49.9908C160.733 61.3101 167.488 72.6082 176.764 82.1233C178.887 84.3309 180.898 86.6075 184.416 84.5644C184.83 84.3256 185.902 84.6015 186.279 84.9995C192.779 91.8983 200.007 97.8684 208.37 102.438L208.051 103.08Z" fill="black"/>
<path d="M68.4105 128.276L69.5991 120.948C61.4165 128.016 53.8653 134.591 44.2287 138.067L50.5965 132.463L50.3259 131.986L45.3484 133.689C56.6512 124.768 66.2932 114.404 75.2983 102.942C75.7865 105.271 76.1792 107.187 76.5772 109.05L77.4793 109.22C76.296 98.0755 84.3778 91.32 89.2332 82.2613C89.3288 83.5031 89.3288 84.0762 89.4296 84.6281C89.5939 85.2726 89.7905 85.9085 90.0186 86.5333C90.8783 84.6706 91.5416 83.2219 92.4967 81.1416C99.6924 93.1933 108.883 102.422 122.537 106.338L122.123 106.964L119.433 107.304L119.04 108.137L128.257 113.715L116.689 114.924L117.49 112.802L104.978 115.328L108.438 111.613L96.2325 103.839L93.0964 110.265C92.7621 107.532 92.502 105.399 92.1943 102.836C86.5322 107.813 82.9662 113.831 80.764 120.974V113.094L68.9305 128.764L68.4105 128.276Z" fill="black"/>
<path d="M238.065 128.913L241.737 126.992L235.162 125.256L237.816 123.16L228.126 110.631L228.476 110.36L249.612 124.429L247.564 124.774L251.952 127.56L249.299 129.194L253.199 132.612L253.008 132.978L238.065 128.913Z" fill="black"/>
<path d="M150.184 99.9594L147.562 101.642C147.032 98.2188 146.501 94.9923 146.024 91.7711L145.344 91.4262C145.148 91.9568 144.952 92.514 144.75 93.0606L144.31 92.7688C143.874 88.4491 143.445 84.1294 142.924 78.9712C146.639 83.8906 148.231 88.9479 149.68 94.2334L151.68 93.5117C152.259 99.243 152.821 104.847 153.389 110.446L152.795 110.525C151.951 107.108 151.102 103.679 150.184 99.9594Z" fill="black"/>
<path d="M126.458 126.716L128.188 126.589L128.464 125.92L118.605 120.926C119.496 119.541 122.388 121.797 122.027 118.687L133.463 122.099L130.688 122.667L134.933 125.209L134.784 125.602L132.502 125.262C134.137 128.209 135.672 130.976 137.109 133.562L126.458 126.716Z" fill="black"/>
<path d="M213.729 119.976L214.6 119.6C211.654 115.036 204.443 114.229 204.151 107.644L214.791 113.285L213.565 113.539C216.038 115.917 218.606 118.395 221.615 121.298L218.898 122.253L221.02 127.188L213.729 119.976Z" fill="black"/>
</svg>
