<svg width="277" height="179" viewBox="0 0 277 179" fill="none" xmlns="http://www.w3.org/2000/svg">
<g clip-path="url(#clip0_123_70)">
<g filter="url(#filter0_d_123_70)">
<path d="M156.352 125.791C159.968 122.231 158.017 114.055 152.11 104.61C154.257 104.274 156.264 103.762 157.782 102.978C163.243 100.158 166.931 95.02 169.722 89.7049C172.723 84.0033 174.737 77.736 178.653 72.5443C179.314 71.6666 179.976 70.8797 180.634 70.1393C189.083 71.152 195.828 72.968 195.828 72.968L198.405 66.419C195.152 65.2515 191.817 64.3278 188.427 63.6555C190.503 62.4751 191.858 62.1073 191.858 62.1073L189.416 55.5047C185.5 57.16 182.322 59.6022 179.661 62.5263C169.716 61.9699 159.7 63.9512 151.798 70.0788C145.857 74.6885 141.843 81.0792 138.067 87.4722C134.721 84.1888 131.158 81.1344 127.402 78.3297C128.114 77.1586 128.878 76.1063 129.7 75.2938C134.666 70.4047 141.217 67.278 145.515 61.6836C154.548 49.9358 147.941 31.5204 140.509 21.9844C139.177 23.2672 136.975 25.1367 135.317 26.6127C143.217 34.7029 148.741 48.8672 142.551 59.4509C139.091 65.3667 132.698 69.0777 128.228 74.16C127.455 75.0423 126.764 76.1598 126.138 77.3937C114.448 69.0102 103.72 65.6367 99.469 69.8227C99.0469 70.2545 98.6992 70.7533 98.44 71.2987L98.4237 71.2824L98.3096 71.6153C98.1513 71.9762 98.0069 72.351 97.9091 72.7608L68.6562 157.016L154.01 127.174L153.987 127.15C154.904 126.855 155.712 126.419 156.352 125.791ZM85.6353 146.148L78.5112 142.828L83.3188 128.976L105.368 139.247L85.6353 146.148ZM125.099 132.349L88.131 115.123L92.9386 101.273L120.564 115.14C104.074 104.407 97.7462 87.4187 97.7462 87.4187L99.3898 82.6856C102.312 90.0774 108.74 99.2828 117.572 107.971C126.48 116.739 135.92 123.09 143.466 125.928L125.099 132.349ZM139.299 88.7201C143.159 83.1861 147.137 77.601 152.669 73.6268C157.935 69.8413 166.484 69.1499 174.588 69.6038C171.85 74.3858 169.827 79.6916 168.011 84.7879C165.816 90.9574 162.873 97.3551 157.262 101.138C155.749 102.158 153.628 102.903 151.363 103.455C148.25 98.6845 144.167 93.6417 139.299 88.7201Z" fill="white"/>
</g>
<g filter="url(#filter1_d_123_70)">
<path d="M117.624 66.2187C119.956 66.2187 112.963 59.2343 114.132 53.109C118.611 52.7645 128.85 54.7829 122.89 46.5973C129.632 47.7846 133.124 42.7512 126.759 37.9809C128.878 38.1299 132.17 34.1348 129.807 33.6296C122.236 32.0255 119.272 36.1207 124.077 42.0272C119.025 41.0866 114.907 43.4357 118.702 48.7112C104.114 46.8929 112.413 66.2187 117.624 66.2187Z" fill="white"/>
</g>
<g filter="url(#filter2_d_123_70)">
<path d="M167.706 60.0118C169.892 59.0246 166.184 52.5036 164.978 50.8366C174.204 49.8495 173.855 47.1 168.07 41.2098C183.798 41.7383 168.556 32.7983 170.693 29.2596C172.544 26.1911 178.222 29.4086 177.696 27.6997C175.922 21.9842 159.095 25.8489 169.743 36.521C160.45 36.7026 159.558 39.7408 166.484 46.0384C154.42 46.1711 164.263 61.5623 167.706 60.0118Z" fill="white"/>
</g>
<g filter="url(#filter3_d_123_70)">
<path d="M207.638 83.0397C203.955 84.071 203.387 83.6846 203.878 87.3514C195.371 83.4354 186.371 77.99 191.833 92.4174C182.171 86.6646 182.653 91.7026 180.846 99.9931C178.495 98.1608 175.154 93.3323 175.154 93.3323L171.615 96.3379C171.615 96.3379 178.099 105.483 181.3 104.964C184.115 104.51 185.647 99.1899 185.803 94.501C194.766 98.2842 199.057 98.7894 194.957 87.7262C202.123 91.7515 210.909 95.3019 207.638 83.0397Z" fill="white"/>
</g>
<g filter="url(#filter4_d_123_70)">
<path d="M78.0828 41.627L84.6668 48.2132L78.0828 54.7972L71.4966 48.2132L78.0828 41.627Z" fill="white"/>
</g>
<g filter="url(#filter5_d_123_70)">
<path d="M93.8559 69.0079L87.2673 75.5918L80.681 69.0033L87.2696 62.417L93.8559 69.0079Z" fill="white"/>
</g>
<g filter="url(#filter6_d_123_70)">
<path d="M104.09 31.2969L110.674 37.8808L104.088 44.4694L97.504 37.8808L104.09 31.2969Z" fill="white"/>
</g>
<g filter="url(#filter7_d_123_70)">
<path d="M175.776 123.221L169.187 116.634L175.771 110.046L182.36 116.632L175.776 123.221Z" fill="white"/>
</g>
<g filter="url(#filter8_d_123_70)">
<path d="M161.094 145.808L154.51 139.224L161.094 132.638L167.681 139.224L161.094 145.808Z" fill="white"/>
</g>
<g filter="url(#filter9_d_123_70)">
<path d="M189.982 151.009L183.393 144.423L189.975 137.834L196.563 144.42L189.982 151.009Z" fill="white"/>
</g>
<g filter="url(#filter10_d_123_70)">
<path d="M196.566 121.013L189.982 114.427L196.566 107.843L203.15 114.427L196.566 121.013Z" fill="white"/>
</g>
<g filter="url(#filter11_d_123_70)">
<path d="M185.575 38.2812L192.159 44.8652L185.572 51.4515L178.988 44.8652L185.575 38.2812Z" fill="white"/>
</g>
</g>
<defs>
<filter id="filter0_d_123_70" x="64.6562" y="21.9844" width="137.749" height="143.031" filterUnits="userSpaceOnUse" color-interpolation-filters="sRGB">
<feFlood flood-opacity="0" result="BackgroundImageFix"/>
<feColorMatrix in="SourceAlpha" type="matrix" values="0 0 0 0 0 0 0 0 0 0 0 0 0 0 0 0 0 0 127 0" result="hardAlpha"/>
<feOffset dy="4"/>
<feGaussianBlur stdDeviation="2"/>
<feComposite in2="hardAlpha" operator="out"/>
<feColorMatrix type="matrix" values="0 0 0 0 0 0 0 0 0 0 0 0 0 0 0 0 0 0 0.5 0"/>
<feBlend mode="normal" in2="BackgroundImageFix" result="effect1_dropShadow_123_70"/>
<feBlend mode="normal" in="SourceGraphic" in2="effect1_dropShadow_123_70" result="shape"/>
</filter>
<filter id="filter1_d_123_70" x="106.508" y="33.2793" width="28.1176" height="40.9395" filterUnits="userSpaceOnUse" color-interpolation-filters="sRGB">
<feFlood flood-opacity="0" result="BackgroundImageFix"/>
<feColorMatrix in="SourceAlpha" type="matrix" values="0 0 0 0 0 0 0 0 0 0 0 0 0 0 0 0 0 0 127 0" result="hardAlpha"/>
<feOffset dy="4"/>
<feGaussianBlur stdDeviation="2"/>
<feComposite in2="hardAlpha" operator="out"/>
<feColorMatrix type="matrix" values="0 0 0 0 0 0 0 0 0 0 0 0 0 0 0 0 0 0 0.5 0"/>
<feBlend mode="normal" in2="BackgroundImageFix" result="effect1_dropShadow_123_70"/>
<feBlend mode="normal" in="SourceGraphic" in2="effect1_dropShadow_123_70" result="shape"/>
</filter>
<filter id="filter2_d_123_70" x="156.651" y="25.0635" width="25.0791" height="43.0581" filterUnits="userSpaceOnUse" color-interpolation-filters="sRGB">
<feFlood flood-opacity="0" result="BackgroundImageFix"/>
<feColorMatrix in="SourceAlpha" type="matrix" values="0 0 0 0 0 0 0 0 0 0 0 0 0 0 0 0 0 0 127 0" result="hardAlpha"/>
<feOffset dy="4"/>
<feGaussianBlur stdDeviation="2"/>
<feComposite in2="hardAlpha" operator="out"/>
<feColorMatrix type="matrix" values="0 0 0 0 0 0 0 0 0 0 0 0 0 0 0 0 0 0 0.5 0"/>
<feBlend mode="normal" in2="BackgroundImageFix" result="effect1_dropShadow_123_70"/>
<feBlend mode="normal" in="SourceGraphic" in2="effect1_dropShadow_123_70" result="shape"/>
</filter>
<filter id="filter3_d_123_70" x="167.615" y="83.0049" width="44.7274" height="29.98" filterUnits="userSpaceOnUse" color-interpolation-filters="sRGB">
<feFlood flood-opacity="0" result="BackgroundImageFix"/>
<feColorMatrix in="SourceAlpha" type="matrix" values="0 0 0 0 0 0 0 0 0 0 0 0 0 0 0 0 0 0 127 0" result="hardAlpha"/>
<feOffset dy="4"/>
<feGaussianBlur stdDeviation="2"/>
<feComposite in2="hardAlpha" operator="out"/>
<feColorMatrix type="matrix" values="0 0 0 0 0 0 0 0 0 0 0 0 0 0 0 0 0 0 0.5 0"/>
<feBlend mode="normal" in2="BackgroundImageFix" result="effect1_dropShadow_123_70"/>
<feBlend mode="normal" in="SourceGraphic" in2="effect1_dropShadow_123_70" result="shape"/>
</filter>
<filter id="filter4_d_123_70" x="67.4966" y="41.627" width="21.1702" height="21.1704" filterUnits="userSpaceOnUse" color-interpolation-filters="sRGB">
<feFlood flood-opacity="0" result="BackgroundImageFix"/>
<feColorMatrix in="SourceAlpha" type="matrix" values="0 0 0 0 0 0 0 0 0 0 0 0 0 0 0 0 0 0 127 0" result="hardAlpha"/>
<feOffset dy="4"/>
<feGaussianBlur stdDeviation="2"/>
<feComposite in2="hardAlpha" operator="out"/>
<feColorMatrix type="matrix" values="0 0 0 0 0 0 0 0 0 0 0 0 0 0 0 0 0 0 0.5 0"/>
<feBlend mode="normal" in2="BackgroundImageFix" result="effect1_dropShadow_123_70"/>
<feBlend mode="normal" in="SourceGraphic" in2="effect1_dropShadow_123_70" result="shape"/>
</filter>
<filter id="filter5_d_123_70" x="76.681" y="62.417" width="21.1749" height="21.1748" filterUnits="userSpaceOnUse" color-interpolation-filters="sRGB">
<feFlood flood-opacity="0" result="BackgroundImageFix"/>
<feColorMatrix in="SourceAlpha" type="matrix" values="0 0 0 0 0 0 0 0 0 0 0 0 0 0 0 0 0 0 127 0" result="hardAlpha"/>
<feOffset dy="4"/>
<feGaussianBlur stdDeviation="2"/>
<feComposite in2="hardAlpha" operator="out"/>
<feColorMatrix type="matrix" values="0 0 0 0 0 0 0 0 0 0 0 0 0 0 0 0 0 0 0.5 0"/>
<feBlend mode="normal" in2="BackgroundImageFix" result="effect1_dropShadow_123_70"/>
<feBlend mode="normal" in="SourceGraphic" in2="effect1_dropShadow_123_70" result="shape"/>
</filter>
<filter id="filter6_d_123_70" x="93.504" y="31.2969" width="21.1702" height="21.1724" filterUnits="userSpaceOnUse" color-interpolation-filters="sRGB">
<feFlood flood-opacity="0" result="BackgroundImageFix"/>
<feColorMatrix in="SourceAlpha" type="matrix" values="0 0 0 0 0 0 0 0 0 0 0 0 0 0 0 0 0 0 127 0" result="hardAlpha"/>
<feOffset dy="4"/>
<feGaussianBlur stdDeviation="2"/>
<feComposite in2="hardAlpha" operator="out"/>
<feColorMatrix type="matrix" values="0 0 0 0 0 0 0 0 0 0 0 0 0 0 0 0 0 0 0.5 0"/>
<feBlend mode="normal" in2="BackgroundImageFix" result="effect1_dropShadow_123_70"/>
<feBlend mode="normal" in="SourceGraphic" in2="effect1_dropShadow_123_70" result="shape"/>
</filter>
<filter id="filter7_d_123_70" x="165.187" y="110.046" width="21.1725" height="21.1748" filterUnits="userSpaceOnUse" color-interpolation-filters="sRGB">
<feFlood flood-opacity="0" result="BackgroundImageFix"/>
<feColorMatrix in="SourceAlpha" type="matrix" values="0 0 0 0 0 0 0 0 0 0 0 0 0 0 0 0 0 0 127 0" result="hardAlpha"/>
<feOffset dy="4"/>
<feGaussianBlur stdDeviation="2"/>
<feComposite in2="hardAlpha" operator="out"/>
<feColorMatrix type="matrix" values="0 0 0 0 0 0 0 0 0 0 0 0 0 0 0 0 0 0 0.5 0"/>
<feBlend mode="normal" in2="BackgroundImageFix" result="effect1_dropShadow_123_70"/>
<feBlend mode="normal" in="SourceGraphic" in2="effect1_dropShadow_123_70" result="shape"/>
</filter>
<filter id="filter8_d_123_70" x="150.51" y="132.638" width="21.1702" height="21.1704" filterUnits="userSpaceOnUse" color-interpolation-filters="sRGB">
<feFlood flood-opacity="0" result="BackgroundImageFix"/>
<feColorMatrix in="SourceAlpha" type="matrix" values="0 0 0 0 0 0 0 0 0 0 0 0 0 0 0 0 0 0 127 0" result="hardAlpha"/>
<feOffset dy="4"/>
<feGaussianBlur stdDeviation="2"/>
<feComposite in2="hardAlpha" operator="out"/>
<feColorMatrix type="matrix" values="0 0 0 0 0 0 0 0 0 0 0 0 0 0 0 0 0 0 0.5 0"/>
<feBlend mode="normal" in2="BackgroundImageFix" result="effect1_dropShadow_123_70"/>
<feBlend mode="normal" in="SourceGraphic" in2="effect1_dropShadow_123_70" result="shape"/>
</filter>
<filter id="filter9_d_123_70" x="179.393" y="137.834" width="21.1702" height="21.1748" filterUnits="userSpaceOnUse" color-interpolation-filters="sRGB">
<feFlood flood-opacity="0" result="BackgroundImageFix"/>
<feColorMatrix in="SourceAlpha" type="matrix" values="0 0 0 0 0 0 0 0 0 0 0 0 0 0 0 0 0 0 127 0" result="hardAlpha"/>
<feOffset dy="4"/>
<feGaussianBlur stdDeviation="2"/>
<feComposite in2="hardAlpha" operator="out"/>
<feColorMatrix type="matrix" values="0 0 0 0 0 0 0 0 0 0 0 0 0 0 0 0 0 0 0.5 0"/>
<feBlend mode="normal" in2="BackgroundImageFix" result="effect1_dropShadow_123_70"/>
<feBlend mode="normal" in="SourceGraphic" in2="effect1_dropShadow_123_70" result="shape"/>
</filter>
<filter id="filter10_d_123_70" x="185.982" y="107.843" width="21.1679" height="21.1704" filterUnits="userSpaceOnUse" color-interpolation-filters="sRGB">
<feFlood flood-opacity="0" result="BackgroundImageFix"/>
<feColorMatrix in="SourceAlpha" type="matrix" values="0 0 0 0 0 0 0 0 0 0 0 0 0 0 0 0 0 0 127 0" result="hardAlpha"/>
<feOffset dy="4"/>
<feGaussianBlur stdDeviation="2"/>
<feComposite in2="hardAlpha" operator="out"/>
<feColorMatrix type="matrix" values="0 0 0 0 0 0 0 0 0 0 0 0 0 0 0 0 0 0 0.5 0"/>
<feBlend mode="normal" in2="BackgroundImageFix" result="effect1_dropShadow_123_70"/>
<feBlend mode="normal" in="SourceGraphic" in2="effect1_dropShadow_123_70" result="shape"/>
</filter>
<filter id="filter11_d_123_70" x="174.988" y="38.2812" width="21.1702" height="21.1704" filterUnits="userSpaceOnUse" color-interpolation-filters="sRGB">
<feFlood flood-opacity="0" result="BackgroundImageFix"/>
<feColorMatrix in="SourceAlpha" type="matrix" values="0 0 0 0 0 0 0 0 0 0 0 0 0 0 0 0 0 0 127 0" result="hardAlpha"/>
<feOffset dy="4"/>
<feGaussianBlur stdDeviation="2"/>
<feComposite in2="hardAlpha" operator="out"/>
<feColorMatrix type="matrix" values="0 0 0 0 0 0 0 0 0 0 0 0 0 0 0 0 0 0 0.5 0"/>
<feBlend mode="normal" in2="BackgroundImageFix" result="effect1_dropShadow_123_70"/>
<feBlend mode="normal" in="SourceGraphic" in2="effect1_dropShadow_123_70" result="shape"/>
</filter>
<clipPath id="clip0_123_70">
<rect width="149" height="149" fill="white" transform="translate(64 15)"/>
</clipPath>
</defs>
</svg>
