<svg width="88" height="68" viewBox="0 0 88 68" fill="none" xmlns="http://www.w3.org/2000/svg">
<g clip-path="url(#clip0_7_38)">
<path d="M8.80339 0C9.54925 0 10.2951 0 11.0636 0C13.7871 0.12417 17.2226 -0.564409 17.313 3.61222C17.4034 7.78885 13.9905 7.4502 11.2331 7.34861C8.24965 7.2583 7.39078 8.63546 7.41338 11.4011C7.48119 26.2902 7.53769 41.1906 7.41338 56.0797C7.41338 59.7145 9.05201 60.1773 12.1259 60.5047C13.9905 60.7078 16.9061 62.4688 17.166 63.8911C17.8102 67.5259 14.6233 67.6162 11.8998 67.7178C0 68.2145 0 68.2371 0 56.6554V8.62417C0 0 0 0 8.80339 0Z" fill="white"/>
<path d="M80.5979 7.76606C77.6032 7.56287 75.4334 7.76606 73.6027 7.1565C72.9088 6.85189 72.2982 6.38532 71.8223 5.79603C71.3464 5.20674 71.0191 4.51195 70.8679 3.77004C70.8679 2.64123 72.4613 0.519049 73.5462 0.383591C77.2358 -0.118749 80.9766 -0.118749 84.6662 0.383591C85.9658 0.586778 87.8305 3.12662 87.8418 4.61666C88.0565 24.1678 88.0791 43.7189 87.8418 63.3152C87.8418 64.8278 85.2878 67.1983 83.5475 67.6047C80.4327 68.2254 77.2259 68.2254 74.1112 67.6047C72.8116 67.3789 70.947 65.3471 70.9696 64.0941C70.9922 62.8411 73.2297 60.5947 74.1903 60.7076C80.6431 61.4414 80.8126 57.7727 80.7335 52.9526C80.5075 40.118 80.6544 27.2607 80.6544 14.4261L80.5979 7.76606Z" fill="white"/>
<path d="M43.4632 24.1906C37.485 24.1906 31.5069 24.4729 25.5626 24.0326C23.7319 23.8972 22.048 21.8314 20.2851 20.6462C21.9463 19.3706 23.5624 17.0227 25.2575 16.9775C37.7412 16.669 50.2324 16.669 62.7312 16.9775C64.4264 16.9775 66.1215 19.348 67.7262 20.6236C65.9746 21.7524 64.3359 23.8972 62.4713 24.01C56.1654 24.4503 49.803 24.1906 43.4632 24.1906Z" fill="white"/>
<path d="M43.9265 51.0112C37.7676 51.0112 31.5973 51.2821 25.4722 50.8419C23.6641 50.7177 22.0141 48.5842 20.2851 47.3764C21.9689 46.1347 23.6754 43.8432 25.3479 43.798C37.8316 43.497 50.3266 43.497 62.8329 43.798C64.4942 43.798 66.0989 46.225 67.7262 47.5344C66.1328 48.6632 64.5959 50.729 62.9346 50.8306C56.6174 51.2369 50.2663 50.9999 43.9265 51.0112Z" fill="white"/>
<path d="M38.5473 37.5785C33.8915 37.7727 29.2286 37.7124 24.5794 37.3979C23.0312 37.2512 21.709 34.9936 20.3416 33.6277C21.7655 32.4989 23.1668 30.4444 24.6246 30.3993C34.3133 30.1208 44.0094 30.1208 53.7131 30.3993C55.024 30.4783 56.3236 32.7359 57.6345 33.8647C56.301 35.0839 55.0466 37.2512 53.6114 37.3528C48.5938 37.8269 43.5875 37.5673 38.5473 37.5785Z" fill="white"/>
</g>
<defs>
<clipPath id="clip0_7_38">
<rect width="88" height="68" fill="white"/>
</clipPath>
</defs>
</svg>
