<svg width="110" height="110" viewBox="0 0 110 110" fill="none" xmlns="http://www.w3.org/2000/svg">
<path d="M84.8448 46.1868C84.8448 49.5721 81.9816 52.3171 78.4497 52.3171C74.9178 52.3171 72.0541 49.5721 72.0541 46.1868C72.0541 42.8012 74.9178 40.0566 78.4497 40.0566C81.9816 40.0566 84.8448 42.8012 84.8448 46.1868Z" fill="black"/>
<path fill-rule="evenodd" clip-rule="evenodd" d="M82.6664 25.3573C77.8094 24.7313 71.6031 24.7314 63.7675 24.7314H46.2325C38.3969 24.7314 32.1907 24.7313 27.3336 25.3573C22.3349 26.0014 18.289 27.3587 15.0983 30.4171C11.9076 33.4754 10.4916 37.3535 9.81956 42.1449C9.16653 46.8006 9.16662 52.7493 9.16666 60.2596V60.7211C9.16662 68.2314 9.16653 74.1801 9.81956 78.8358C10.4916 83.6272 11.9076 87.5052 15.0983 90.5637C18.289 93.6221 22.3349 94.9792 27.3336 95.6237C32.1908 96.2493 38.3969 96.2493 46.2325 96.2493H63.7675C71.6031 96.2493 77.8094 96.2493 82.6664 95.6237C87.665 94.9792 91.7111 93.6221 94.9016 90.5637C98.0925 87.5052 99.5083 83.6272 100.18 78.8358C100.833 74.1801 100.833 68.2314 100.833 60.7211V60.26C100.833 52.7493 100.833 46.8006 100.18 42.1449C99.5083 37.3535 98.0925 33.4754 94.9016 30.4171C91.7111 27.3587 87.665 26.0014 82.6664 25.3573ZM28.1858 31.4327C23.8963 31.9855 21.4249 33.0221 19.6205 34.7517C17.8161 36.4812 16.7346 38.8501 16.1579 42.9618C15.6953 46.2598 15.5918 50.3816 15.5687 55.7729L17.7267 53.963C22.8789 49.6418 30.644 49.8898 35.4848 54.5299L53.7744 72.0607C55.6055 73.8162 58.4884 74.0554 60.6072 72.6282L61.8787 71.772C67.9768 67.6639 76.2272 68.1397 81.7676 72.9192L92.8029 82.4388C93.2539 81.2288 93.5944 79.7846 93.8419 78.0191C94.4313 73.8194 94.4382 68.2832 94.4382 60.4906C94.4382 52.6975 94.4313 47.1613 93.8419 42.9618C93.2653 38.8501 92.1837 36.4812 90.3797 34.7517C88.5752 33.0221 86.1039 31.9855 81.8143 31.4327C77.4327 30.868 71.6572 30.8615 63.5273 30.8615H46.4727C38.343 30.8615 32.5673 30.868 28.1858 31.4327Z" fill="black"/>
<path d="M78.3122 11.9645C74.3714 11.4584 69.3541 11.4584 63.0997 11.4585H48.9385C42.6838 11.4584 37.6665 11.4584 33.7257 11.9645C29.6448 12.4885 26.2424 13.6051 23.5438 16.1828C21.9874 17.6694 20.9392 19.38 20.2253 21.3094C22.5362 20.2552 25.1489 19.634 28.0823 19.254C33.0524 18.6102 39.4029 18.6102 47.4205 18.6103H65.3638C73.3814 18.6102 79.7316 18.6102 84.7018 19.254C87.2639 19.5859 89.5812 20.1018 91.6666 20.9294C90.9581 19.1547 89.9479 17.5711 88.4941 16.1828C85.7954 13.6051 82.3932 12.4885 78.3122 11.9645Z" fill="black"/>
</svg>
