<svg width="77" height="68" viewBox="0 0 77 68" fill="none" xmlns="http://www.w3.org/2000/svg">
<g clip-path="url(#clip0_8_51)">
<path d="M14.6956 59.2087C13.9543 63.9536 12.835 64.9016 8.28305 64.9115C0.646724 64.9315 0 64.2779 0 56.5045C0 49.5194 0 42.5343 0 35.5492C0 31.1286 1.54219 29.6268 6.01951 29.6118H7.51195C13.0141 29.6118 13.8349 30.2904 14.7254 35.7936C18.3968 35.7936 22.118 35.9333 25.8242 35.7537C29.4887 35.5719 33.1115 36.6008 36.137 38.6825C39.1915 40.7082 42.455 41.8906 46.201 41.5015C49.947 41.1123 53.116 42.1251 54.6582 46.0867C57.7674 45.0888 60.6677 44.1807 63.6128 43.2976C66.8191 42.3501 70.2451 42.4691 73.3783 43.6369C75.5175 44.3853 76.9204 45.8871 76.995 48.2122C77.0696 50.4025 75.9105 51.9342 73.9504 52.9371C65.029 57.504 56.1224 62.0942 47.2308 66.7077C44.1613 68.2993 41.0919 68.3342 37.8732 67.2066C30.2319 64.5274 22.5607 61.9179 14.6956 59.2087ZM14.4618 38.5777C14.4618 44.2306 14.422 49.6142 14.5264 54.9927C14.5264 55.5415 15.3174 56.3648 15.9094 56.5793C23.1527 59.1638 30.4657 61.5687 37.6792 64.228C41.3207 65.5801 44.5195 65.156 47.8825 63.3449C55.678 59.1438 63.6029 55.1823 71.4133 51.0112C72.5177 50.4224 73.2888 49.21 74.2141 48.282C73.0251 47.4188 71.8859 46.4709 70.6273 45.7275C70.0184 45.4406 69.3288 45.3753 68.6772 45.5428C64.2894 46.6156 59.9066 47.7182 55.5636 48.9506C55.0661 49.0953 54.7079 50.0532 54.4393 50.7018C53.499 52.967 51.7927 54.6285 49.4645 54.6933C43.0967 54.9428 36.719 54.848 30.3413 54.7831C29.8438 54.7831 29.3464 53.9399 28.8489 53.4859C29.3464 52.987 29.7195 52.3433 30.2916 52.0939C30.8637 51.8444 31.595 52.0091 32.2566 52.0091H48.176C50.0465 52.0091 51.6584 51.1359 51.8872 49.3647C52.0038 47.8765 51.5442 46.4005 50.6037 45.2435C49.8923 44.4402 48.171 44.1708 46.9472 44.2456C42.0819 44.6448 37.8632 43.123 33.8038 40.5934C32.2367 39.5955 30.3214 38.7374 28.5454 38.6276C23.9786 38.418 19.4017 38.5777 14.4618 38.5777ZM2.85056 47.1694C2.85056 50.2378 2.85056 53.3113 2.85056 56.3847C2.85056 62.6464 2.20384 62.0477 8.59149 62.1674C10.9595 62.2123 11.845 61.3392 11.8102 58.9692C11.7206 52.1587 11.7803 45.3483 11.7803 38.5428C11.7803 32.1065 11.7803 32.1514 5.31309 32.4009C3.51221 32.4707 2.79086 33.1742 2.82569 34.9604C2.89036 39.0267 2.85056 43.0981 2.85056 47.1694Z" fill="white"/>
<path d="M54.5238 33.0745C53.5737 32.4807 52.9419 32.0766 52.33 31.6974C50.4246 30.4451 49.6883 30.7894 49.1113 32.9747C48.8625 33.9227 48.2755 35.4694 47.7382 35.5292C45.5452 35.6865 43.3412 35.5709 41.1764 35.185C40.7785 35.1201 40.5446 33.5984 40.3656 32.7252C39.9626 30.7943 38.9875 30.2605 37.4553 31.5877C35.7091 33.0845 34.2714 33.0296 32.8785 31.1636C32.4225 30.5724 31.8944 30.0411 31.3064 29.5819C29.7593 28.3496 29.7095 27.1621 30.9482 25.5904C32.4855 23.6446 32.0925 22.5968 29.62 22.3274C27.441 22.0729 26.7843 21.0252 26.9634 19.0294C27.0331 18.1194 27.0331 17.2053 26.9634 16.2953C26.8391 14.544 27.6151 13.8006 29.3513 13.5312C32.177 13.117 32.5004 12.3237 30.799 10.0386C29.7443 8.62162 29.7593 7.54392 31.1174 6.42132C31.8273 5.84821 32.4744 5.20094 33.0476 4.49043C34.346 2.84394 35.6146 2.81401 37.2613 4.09128C39.0572 5.49329 40.0671 5.12408 40.3457 2.86889C40.6441 0.473998 41.8381 -0.204555 44.0171 0.089817C44.6776 0.175514 45.3464 0.175514 46.007 0.089817C47.9173 -0.144683 48.8774 0.558817 49.1461 2.5845C49.4943 5.15901 50.4346 5.57811 52.4941 3.99649C54.1109 2.77908 55.285 2.96369 56.5038 4.46549C57.1369 5.23259 57.8379 5.94064 58.5982 6.58098C59.8817 7.67365 59.817 8.66653 58.8121 9.98372C57.061 12.2788 57.3794 13.152 60.1802 13.5461C62.1154 13.8205 62.7074 14.7935 62.583 16.5647C62.5181 17.395 62.5181 18.2291 62.583 19.0594C62.7621 21.0551 62.1253 22.1029 59.9414 22.3673C57.4938 22.6667 57.0859 23.7494 58.648 25.6653C59.9563 27.2719 59.7424 28.3895 58.2599 29.6568C56.9615 30.6696 55.7874 31.887 54.5238 33.0745ZM35.4405 29.6917C37.0026 27.9803 38.495 27.8257 40.6541 28.4543C43.231 29.2077 42.5545 31.448 43.4549 32.83C46.191 33.0545 46.1065 33.0296 46.7631 30.7894C46.9771 30.0609 47.6934 29.3973 48.3352 28.8984C50.4644 27.2469 52.4742 27.9354 54.305 29.6119L56.265 27.5562C53.8075 22.9461 54.6034 20.9952 59.5036 19.1841V16.3801C54.8223 15.4371 53.9667 13.2518 56.1755 8.19753L54.5487 6.25168C54.2065 6.36859 53.8738 6.51205 53.5538 6.68076C50.4395 8.79126 47.6785 7.74849 46.5393 4.16114C46.3602 3.59734 45.42 2.87388 44.9026 2.92377C44.221 2.99363 43.1912 3.68216 43.0818 4.25094C42.8032 5.68788 42.2062 6.43628 40.8879 7.19467C38.6393 8.49689 37.0026 7.6936 35.2664 6.17185L33.2367 8.30729C35.8733 12.683 34.9132 14.9781 30.0229 16.5497V19.3787C34.8336 20.4813 35.7589 22.8164 33.2516 27.7359L35.4405 29.6917Z" fill="white"/>
<path d="M44.6439 26.5283C42.3877 26.4683 40.2447 25.5244 38.6741 23.8988C37.1035 22.2732 36.2302 20.0953 36.2414 17.8318C36.3161 12.8973 40.077 9.26008 45.0419 9.37983C49.8575 9.49458 53.3548 13.1917 53.2851 18.1062C53.2484 20.3709 52.3185 22.5287 50.6989 24.1072C49.0793 25.6857 46.9021 26.5563 44.6439 26.5283ZM50.4943 17.8368C50.4861 17.0859 50.3305 16.344 50.0365 15.6534C49.7424 14.9628 49.3156 14.3371 48.7805 13.812C48.2453 13.2868 47.6122 12.8725 46.9174 12.5927C46.2226 12.3129 45.4796 12.1732 44.7309 12.1814C43.9823 12.1895 43.2425 12.3455 42.5539 12.6405C41.8654 12.9354 41.2415 13.3634 40.7179 13.9002C40.1942 14.4369 39.7811 15.0718 39.5022 15.7687C39.2232 16.4655 39.0838 17.2107 39.092 17.9615C39.091 18.7282 39.2436 19.4872 39.541 20.1935C39.8383 20.8998 40.2743 21.5388 40.8228 22.0727C41.3714 22.6066 42.0215 23.0244 42.7343 23.3013C43.4471 23.5781 44.2082 23.7084 44.9722 23.6843C46.4704 23.6221 47.8854 22.9765 48.9166 21.8846C49.9477 20.7927 50.5137 19.3406 50.4943 17.8368Z" fill="white"/>
</g>
<defs>
<clipPath id="clip0_8_51">
<rect width="77" height="68" fill="white"/>
</clipPath>
</defs>
</svg>
